<?xml version="1.0" encoding="UTF-8" standalone="no" ?>
<!DOCTYPE svg PUBLIC "-//W3C//DTD SVG 1.1//EN" "http://www.w3.org/Graphics/SVG/1.1/DTD/svg11.dtd">
<svg xmlns="http://www.w3.org/2000/svg" xmlns:xlink="http://www.w3.org/1999/xlink" version="1.1" width="1280" height="1024" viewBox="0 0 1280 1024" xml:space="preserve">
<desc>Created with Fabric.js 5.3.0</desc>
<defs>
</defs>
<g transform="matrix(1 0 0 1 640 512)" id="background-logo"  >
<rect style="stroke: none; stroke-width: 0; stroke-dasharray: none; stroke-linecap: butt; stroke-dashoffset: 0; stroke-linejoin: miter; stroke-miterlimit: 4; fill: rgb(66,66,66); fill-rule: nonzero; opacity: 1;"  paint-order="stroke"  x="-640" y="-512" rx="0" ry="0" width="1280" height="1024" />
</g>
<g transform="matrix(1.9211538461538462 0 0 1.9211538461538462 640 391.6883838700093)" id="logo-logo"  >
<g style=""  paint-order="stroke"   >
		<g transform="matrix(0.24665527998609416 0 0 0.24665527998609416 0 2.842171e-14)"  >
<path style="stroke: none; stroke-width: 1; stroke-dasharray: none; stroke-linecap: butt; stroke-dashoffset: 0; stroke-linejoin: miter; stroke-miterlimit: 4; fill: rgb(255,255,255); fill-rule: nonzero; opacity: 1;"  paint-order="stroke"  transform=" translate(-500.0002442, -500.00000005)" d="M 435.5722656 72.8476563 L 104.9047852 403.5151367 L 104.9047852 72.8476563 L 435.5722656 72.8476563 z M 435.5722656 927.1523438 L 104.9047852 596.4853516 L 104.9047852 927.1523437999999 L 435.5722656 927.1523437999999 z M 803.671875 466.9746094 C 826.5957031 428.0947266 839.9628906 382.9609375 839.9628906 334.65234380000004 C 839.9628906 190.29785160000003 722.5273437000001 72.84765630000004 578.1582031 72.84765630000004 L 435.5722656 72.84765630000004 L 435.5722656 265.80322270000005 L 578.1582031 265.80322270000005 C 616.1191406 265.80322270000005 647.0078125 296.69091800000007 647.0078125 334.65234380000004 C 647.0078125 372.62792970000004 616.1191406 403.51513680000005 578.1582031 403.51513680000005 L 297.8603516 403.51513680000005 L 297.8603516 403.51513680000005 L 104.9047852 403.51513680000005 L 104.9047852 499.99365240000003 L 104.9047852 596.4853516000001 L 297.8603516 596.4853516000001 L 297.8603516 596.4707032 L 633.2910157 596.4707032 C 671.2519532 596.4707032 702.1406251 627.3583985 702.1406251 665.319336 C 702.1406251 703.2958985 671.2519532 734.1962891000001 633.2910157 734.1962891000001 L 435.5722657 734.1962891000001 L 435.5722657 927.1523438 L 633.2910157 927.1523438 C 777.6445313 927.1523438 895.0957032 809.703125 895.0957032 665.319336 C 895.0957031 586.0546875 859.5292969 515.0332031 803.671875 466.9746094 z" stroke-linecap="round" />
</g>
</g>
</g>
<g transform="matrix(1.9211538461538462 0 0 1.9211538461538462 640.0979788461539 702.3508731775611)" id="text-logo"  >
<g style=""  paint-order="stroke"   >
		<g transform="matrix(1 0 0 1 0 0)" id="text-logo-path-0"  >
<path style="stroke: none; stroke-width: 0; stroke-dasharray: none; stroke-linecap: butt; stroke-dashoffset: 0; stroke-linejoin: miter; stroke-miterlimit: 4; fill: rgb(255,255,255); fill-rule: nonzero; opacity: 1;"  paint-order="stroke"  transform=" translate(-125.08500000000001, 23.8)" d="M 34.68 -37.33 C 34.68 -44.47 28.9 -47.6 18.63 -47.6 L 3.26 -47.6 C 2.65 -47.6 2.45 -47.4 2.45 -46.78 L 2.45 -0.82 C 2.45 -0.2 2.65 0 3.26 0 L 19.38 0 C 29.38 0 36.65 -4.76 36.65 -12.99 L 36.65 -14.28 C 36.65 -20.06 32.91 -23.53 27.34 -25.23 C 31.82 -27.13 34.68 -30.46 34.68 -35.43 Z M 15.1 -19.86 L 19.18 -19.86 C 22.58 -19.86 24 -18.43 24 -15.16 L 24 -14.35 C 24 -10.81 22.58 -9.38 19.18 -9.38 L 15.1 -9.38 Z M 15.1 -38.22 L 18.16 -38.22 C 20.81 -38.22 22.03 -37.26 22.03 -34.88 L 22.03 -34.27 C 22.03 -31.55 20.81 -29.92 18.16 -29.92 L 15.1 -29.92 Z M 45.76 -0.82 C 45.76 -0.2 45.97 0 46.58 0 L 70.86 0 C 71.47 0 71.67 -0.2 71.67 -0.82 L 71.67 -11.15 C 71.67 -11.76 71.47 -11.97 70.86 -11.97 L 58.41 -11.97 L 58.41 -46.78 C 58.41 -47.4 58.21 -47.6 57.6 -47.6 L 46.58 -47.6 C 45.97 -47.6 45.76 -47.4 45.76 -46.78 Z M 102.75 -0.75 C 103.02 -0.2 103.29 0 103.9 0 L 115.53 0 C 116.14 0 116.28 -0.2 116.01 -0.75 L 104.11 -26.66 L 115.12 -46.85 C 115.4 -47.4 115.33 -47.6 114.72 -47.6 L 103.09 -47.6 C 102.48 -47.6 102.14 -47.4 101.86 -46.85 L 91.94 -28.22 L 91.94 -46.78 C 91.94 -47.4 91.73 -47.6 91.12 -47.6 L 80.1 -47.6 C 79.49 -47.6 79.29 -47.4 79.29 -46.78 L 79.29 -0.82 C 79.29 -0.2 79.49 0 80.1 0 L 91.12 0 C 91.73 0 91.94 -0.2 91.94 -0.82 L 91.94 -13.26 L 94.72 -18.36 Z M 143.28 -0.75 C 143.48 -0.14 143.82 0 144.43 0 L 156.2 0 C 156.81 0 156.94 -0.14 156.67 -0.75 L 148.38 -20.81 C 152.32 -23.05 154.9 -27.2 154.9 -33.52 L 154.9 -34.82 C 154.9 -42.7 149.12 -47.6 138.86 -47.6 L 123.49 -47.6 C 122.88 -47.6 122.67 -47.4 122.67 -46.78 L 122.67 -0.82 C 122.67 -0.2 122.88 0 123.49 0 L 134.5 0 C 135.12 0 135.32 -0.2 135.32 -0.82 L 135.32 -18.56 L 136.07 -18.56 Z M 135.32 -38.22 L 138.58 -38.22 C 140.56 -38.22 142.26 -36.65 142.26 -34 L 142.26 -33.18 C 142.26 -30.12 140.56 -28.63 138.79 -28.63 L 135.32 -28.63 Z M 161.98 -29.92 L 161.98 -17.75 C 161.98 -12.31 163.27 -8.16 165.58 -5.24 L 162.45 -0.14 C 162.11 0.41 162.18 0.54 162.79 0.54 L 167.35 0.54 C 167.96 0.54 168.3 0.41 168.64 -0.14 L 169.66 -1.77 C 172.52 -0.2 176.05 0.54 180.13 0.54 C 191.22 0.54 198.29 -4.96 198.29 -17.75 L 198.29 -29.92 C 198.29 -35.36 197 -39.44 194.68 -42.36 L 197.81 -47.46 C 198.15 -48.01 198.08 -48.14 197.47 -48.14 L 193.12 -48.14 C 192.51 -48.14 192.17 -48.01 191.83 -47.46 L 190.74 -45.7 C 187.88 -47.4 184.28 -48.14 180.13 -48.14 C 169.05 -48.14 161.98 -42.64 161.98 -29.92 Z M 174.62 -29.58 C 174.62 -36.11 176.26 -38.08 180.13 -38.08 C 182.31 -38.08 183.74 -37.47 184.62 -35.84 L 174.62 -19.72 Z M 180.13 -9.52 C 178.02 -9.52 176.6 -10.06 175.71 -11.63 L 185.64 -27.74 L 185.64 -18.09 C 185.64 -11.49 184.01 -9.52 180.13 -9.52 Z M 207.4 -0.82 C 207.4 -0.2 207.6 0 208.22 0 L 216.92 0 C 217.53 0 217.74 -0.2 217.74 -0.82 L 217.74 -24.96 L 222.77 -6.19 C 222.9 -5.64 223.18 -5.44 223.79 -5.44 L 231.27 -5.44 C 231.88 -5.44 232.15 -5.64 232.29 -6.19 L 237.39 -25.23 L 237.39 -0.82 C 237.39 -0.2 237.59 0 238.2 0 L 246.91 0 C 247.52 0 247.72 -0.2 247.72 -0.82 L 247.72 -46.78 C 247.72 -47.4 247.52 -47.6 246.91 -47.6 L 234.4 -47.6 C 233.78 -47.6 233.51 -47.4 233.38 -46.85 L 227.87 -24.48 L 222.36 -46.85 C 222.22 -47.4 221.95 -47.6 221.34 -47.6 L 208.22 -47.6 C 207.6 -47.6 207.4 -47.4 207.4 -46.78 Z" stroke-linecap="round" />
</g>
</g>
</g>
<g transform="matrix(1.9211538461538462 0 0 1.9211538461538462 641.1296384529884 794.726443600638)" id="tagline-6b8dbbf6-f687-445d-9350-77c14ec9633b-logo"  >
<g style=""  paint-order="stroke"   >
		<g transform="matrix(1 0 0 1 0 0)" id="tagline-6b8dbbf6-f687-445d-9350-77c14ec9633b-logo-path-0"  >
<path style="stroke: none; stroke-width: 0; stroke-dasharray: none; stroke-linecap: butt; stroke-dashoffset: 0; stroke-linejoin: miter; stroke-miterlimit: 4; fill: rgb(255,255,255); fill-rule: nonzero; opacity: 1;"  paint-order="stroke"  transform=" translate(-69.88772647311828, 12.25)" d="M 1.68 -0.42 C 1.68 -0.11 1.79 0 2.1 0 L 4.48 0 C 4.8 0 4.9 -0.11 4.9 -0.42 L 4.9 -17.22 L 9.56 -3.19 C 9.66 -2.91 9.8 -2.8 10.12 -2.8 L 11.87 -2.8 C 12.18 -2.8 12.32 -2.91 12.43 -3.19 L 17.12 -17.33 L 17.12 -0.42 C 17.12 -0.11 17.22 0 17.54 0 L 19.92 0 C 20.23 0 20.34 -0.11 20.34 -0.42 L 20.34 -24.08 C 20.34 -24.4 20.23 -24.5 19.92 -24.5 L 16.98 -24.5 C 16.66 -24.5 16.52 -24.4 16.42 -24.12 L 11.17 -8.29 L 5.92 -24.12 C 5.81 -24.4 5.67 -24.5 5.36 -24.5 L 2.1 -24.5 C 1.79 -24.5 1.68 -24.4 1.68 -24.08 Z M 37.7 -0.42 C 37.7 -0.11 37.8 0 38.12 0 L 50.26 0 C 50.58 0 50.68 -0.11 50.68 -0.42 L 50.68 -2.94 C 50.68 -3.26 50.58 -3.36 50.26 -3.36 L 41.41 -3.36 L 41.41 -11.27 L 49.21 -11.27 C 49.53 -11.27 49.63 -11.38 49.63 -11.69 L 49.63 -14.21 C 49.63 -14.53 49.53 -14.63 49.21 -14.63 L 41.41 -14.63 L 41.41 -21.14 L 50.26 -21.14 C 50.58 -21.14 50.68 -21.25 50.68 -21.56 L 50.68 -24.08 C 50.68 -24.4 50.58 -24.5 50.26 -24.5 L 38.12 -24.5 C 37.8 -24.5 37.7 -24.4 37.7 -24.08 Z M 67.62 -0.42 C 67.62 -0.11 67.72 0 68.04 0 L 74.69 0 C 80.01 0 83.86 -3.64 83.86 -9.87 L 83.86 -14.6 C 83.86 -20.86 80.01 -24.5 74.69 -24.5 L 68.04 -24.5 C 67.72 -24.5 67.62 -24.4 67.62 -24.08 Z M 71.33 -21.07 L 74.72 -21.07 C 78.44 -21.07 80.15 -18.66 80.15 -14.42 L 80.15 -10.05 C 80.15 -5.85 78.44 -3.43 74.72 -3.43 L 71.33 -3.43 Z M 100.8 -0.42 C 100.8 -0.11 100.91 0 101.22 0 L 104.09 0 C 104.41 0 104.51 -0.11 104.51 -0.42 L 104.51 -24.08 C 104.51 -24.4 104.41 -24.5 104.09 -24.5 L 101.22 -24.5 C 100.91 -24.5 100.8 -24.4 100.8 -24.08 Z M 134.37 -0.42 C 134.44 -0.14 134.61 0 134.89 0 L 137.76 0 C 138.04 0 138.15 -0.14 138.07 -0.42 L 131.67 -24.08 C 131.6 -24.36 131.43 -24.5 131.15 -24.5 L 127.58 -24.5 C 127.3 -24.5 127.12 -24.36 127.05 -24.08 L 120.64 -0.42 C 120.58 -0.14 120.68 0 120.96 0 L 123.83 0 C 124.11 0 124.28 -0.14 124.36 -0.42 L 125.65 -5.25 L 133.07 -5.25 Z M 126.56 -8.61 L 129.36 -18.9 L 132.16 -8.61 Z" stroke-linecap="round" />
</g>
</g>
</g>
</svg>